<svg width="24" height="19" viewBox="0 0 24 19" fill="none" xmlns="http://www.w3.org/2000/svg">
<path d="M23.6776 11.0722C23.5936 11.1366 23.498 11.1834 23.3962 11.21C23.2944 11.2367 23.1886 11.2425 23.0846 11.2274C22.9806 11.2122 22.8805 11.1763 22.7901 11.1216C22.6997 11.067 22.6208 10.9947 22.5578 10.9088C22.0756 10.247 21.4481 9.71007 20.7256 9.34118C20.0031 8.97229 19.206 8.78178 18.3982 8.78498C18.2409 8.78497 18.0871 8.73759 17.9561 8.64878C17.825 8.55997 17.7225 8.43367 17.6613 8.28567C17.6198 8.18517 17.5984 8.07719 17.5984 7.96811C17.5984 7.85903 17.6198 7.75106 17.6613 7.65056C17.7225 7.50256 17.825 7.37626 17.9561 7.28745C18.0871 7.19864 18.2409 7.15126 18.3982 7.15125C18.847 7.15121 19.2869 7.02263 19.6677 6.78012C20.0486 6.53762 20.3552 6.1909 20.5528 5.77936C20.7503 5.36782 20.8309 4.90794 20.7854 4.45197C20.7398 3.996 20.57 3.56221 20.2951 3.19988C20.0202 2.83754 19.6514 2.56119 19.2304 2.4022C18.8095 2.24321 18.3533 2.20797 17.9137 2.30047C17.4741 2.39296 17.0688 2.6095 16.7436 2.92548C16.4185 3.24146 16.1867 3.64421 16.0745 4.08799C16.0482 4.19191 16.0022 4.28953 15.939 4.37528C15.8758 4.46103 15.7966 4.53322 15.7061 4.58774C15.6156 4.64226 15.5154 4.67804 15.4114 4.69303C15.3073 4.70802 15.2014 4.70193 15.0996 4.67512C14.9978 4.6483 14.9022 4.60127 14.8183 4.53673C14.7343 4.47218 14.6636 4.39138 14.6102 4.29894C14.5568 4.20649 14.5218 4.10421 14.5071 3.99794C14.4924 3.89166 14.4984 3.78348 14.5247 3.67956C14.6804 3.06417 14.9746 2.49438 15.384 2.01555C15.7933 1.53672 16.3064 1.16205 16.8824 0.921355C17.4585 0.680663 18.0816 0.580591 18.7022 0.629101C19.3228 0.677611 19.9238 0.873365 20.4573 1.20079C20.9908 1.52821 21.442 1.97826 21.7752 2.51513C22.1084 3.05201 22.3143 3.66088 22.3765 4.29331C22.4387 4.92574 22.3555 5.56427 22.1336 6.15809C21.9116 6.75191 21.557 7.28463 21.0979 7.71386C22.1856 8.19479 23.1312 8.95797 23.8406 9.92758C23.9036 10.0136 23.9494 10.1115 23.9753 10.2156C24.0013 10.3198 24.0068 10.4281 23.9917 10.5344C23.9765 10.6408 23.941 10.743 23.8871 10.8353C23.8332 10.9275 23.762 11.0081 23.6776 11.0722ZM18.2902 17.3621C18.3481 17.4551 18.387 17.559 18.4045 17.6677C18.422 17.7765 18.4178 17.8877 18.3921 17.9947C18.3665 18.1017 18.3199 18.2023 18.2551 18.2904C18.1904 18.3785 18.1089 18.4524 18.0155 18.5075C17.9221 18.5627 17.8187 18.5979 17.7116 18.6112C17.6045 18.6245 17.4959 18.6155 17.3923 18.5848C17.2887 18.5541 17.1922 18.5024 17.1087 18.4326C17.0252 18.3629 16.9564 18.2766 16.9064 18.179C16.4025 17.3076 15.6848 16.5855 14.8243 16.0839C13.9637 15.5823 12.9899 15.3184 11.999 15.3184C11.008 15.3184 10.0342 15.5823 9.17364 16.0839C8.31305 16.5855 7.5954 17.3076 7.0915 18.179C7.0415 18.2766 6.97267 18.3629 6.88916 18.4326C6.80566 18.5024 6.7092 18.5541 6.60559 18.5848C6.50198 18.6155 6.39336 18.6245 6.28626 18.6112C6.17916 18.5979 6.07581 18.5627 5.98241 18.5075C5.889 18.4524 5.80749 18.3785 5.74276 18.2904C5.67804 18.2023 5.63144 18.1017 5.60577 17.9947C5.58011 17.8877 5.5759 17.7765 5.59341 17.6677C5.61092 17.559 5.64978 17.4551 5.70766 17.3621C6.48317 16.0014 7.66563 14.9306 9.08128 14.307C8.2847 13.6842 7.69926 12.8221 7.40727 11.8419C7.11527 10.8618 7.1314 9.8128 7.45338 8.84247C7.77536 7.87215 8.387 7.02926 9.20234 6.43228C10.0177 5.83529 10.9957 5.51424 11.999 5.51424C13.0022 5.51424 13.9802 5.83529 14.7956 6.43228C15.6109 7.02926 16.2225 7.87215 16.5445 8.84247C16.8665 9.8128 16.8826 10.8618 16.5906 11.8419C16.2986 12.8221 15.7132 13.6842 14.9166 14.307C16.3323 14.9306 17.5147 16.0014 18.2902 17.3621ZM11.999 13.6862C12.6318 13.6862 13.2504 13.4946 13.7766 13.1355C14.3028 12.7765 14.7129 12.2662 14.955 11.6691C15.1972 11.0721 15.2606 10.4151 15.1371 9.78127C15.0137 9.14744 14.7089 8.56523 14.2614 8.10827C13.814 7.6513 13.2438 7.34011 12.6232 7.21403C12.0025 7.08795 11.3592 7.15266 10.7745 7.39997C10.1898 7.64727 9.69013 8.06608 9.33855 8.60341C8.98697 9.14074 8.79931 9.77247 8.79931 10.4187C8.79931 11.2853 9.13641 12.1164 9.73646 12.7292C10.3365 13.3419 11.1504 13.6862 11.999 13.6862ZM6.39958 7.96811C6.39958 7.75147 6.31531 7.54369 6.16529 7.3905C6.01528 7.23731 5.81182 7.15125 5.59967 7.15125C5.15085 7.15121 4.71104 7.02263 4.33018 6.78012C3.94933 6.53762 3.64271 6.1909 3.44515 5.77936C3.24758 5.36782 3.167 4.90794 3.21254 4.45197C3.25808 3.996 3.42793 3.56221 3.70279 3.19988C3.97765 2.83754 4.34651 2.56119 4.76747 2.4022C5.18842 2.24321 5.6446 2.20797 6.08418 2.30047C6.52377 2.39296 6.92914 2.6095 7.25426 2.92548C7.57938 3.24146 7.8112 3.64421 7.92341 4.08799C7.97645 4.29787 8.10895 4.47763 8.29178 4.58774C8.47461 4.69785 8.69278 4.72928 8.8983 4.67512C9.10382 4.62095 9.27985 4.48564 9.38767 4.29894C9.49549 4.11223 9.52627 3.88944 9.47324 3.67956C9.3175 3.06417 9.02326 2.49438 8.61394 2.01555C8.20462 1.53672 7.69152 1.16205 7.11545 0.921355C6.53939 0.680663 5.91627 0.580591 5.29566 0.629101C4.67506 0.677611 4.07411 0.873365 3.54063 1.20079C3.00715 1.52821 2.55586 1.97826 2.22267 2.51513C1.88949 3.05201 1.6836 3.66088 1.62139 4.29331C1.55918 4.92574 1.64237 5.56427 1.86434 6.15809C2.0863 6.75191 2.44092 7.28463 2.89998 7.71386C1.81338 8.19525 0.868919 8.95839 0.160285 9.92758C0.0328632 10.1009 -0.0219194 10.3188 0.00798931 10.5334C0.037898 10.7479 0.150048 10.9416 0.319767 11.0717C0.489487 11.2018 0.702873 11.2578 0.912984 11.2272C1.12309 11.1967 1.31272 11.0822 1.44014 10.9088C1.92227 10.247 2.54983 9.71007 3.27229 9.34118C3.99476 8.97229 4.79194 8.78178 5.59967 8.78498C5.81182 8.78498 6.01528 8.69892 6.16529 8.54573C6.31531 8.39253 6.39958 8.18476 6.39958 7.96811Z" fill="#9299A2"/>
</svg>
