<svg width="24" height="19" viewBox="0 0 24 19" fill="none" xmlns="http://www.w3.org/2000/svg">
<path d="M5.61115 10.8261C5.61386 10.8816 5.60552 10.9369 5.58664 10.9889C5.56775 11.0409 5.53871 11.0885 5.50129 11.1287C5.46387 11.1688 5.41884 11.2008 5.36896 11.2226C5.31907 11.2444 5.26536 11.2556 5.2111 11.2556H0.798548C0.617961 11.2559 0.442592 11.1937 0.300959 11.0791C0.159326 10.9646 0.05976 10.8044 0.0184508 10.6247C-0.00727143 10.5017 -0.00608565 10.3744 0.0219233 10.2519C0.0499323 10.1294 0.104072 10.0148 0.180471 9.91617C0.886368 8.95914 1.82297 8.20561 2.89881 7.72916C2.42648 7.2889 2.06421 6.73934 1.84235 6.12651C1.6205 5.51369 1.54551 4.85543 1.62366 4.20688C1.70182 3.55834 1.93085 2.93838 2.29157 2.39893C2.65229 1.85948 3.1342 1.41624 3.69694 1.10635C4.25967 0.796454 4.88685 0.628921 5.52595 0.617782C6.16504 0.606642 6.79744 0.75222 7.37018 1.04232C7.94292 1.33242 8.43933 1.75861 8.81783 2.28517C9.19633 2.81174 9.4459 3.42335 9.54564 4.0688C9.55852 4.1556 9.54331 4.24432 9.50233 4.32147C9.46135 4.39862 9.39684 4.45997 9.31861 4.49618C8.20886 5.02068 7.26902 5.85874 6.60998 6.91149C5.95094 7.96423 5.6002 9.18773 5.59915 10.4376C5.59915 10.5685 5.59915 10.6973 5.61115 10.8261ZM23.8134 9.91515C23.1092 8.95923 22.1747 8.20611 21.1011 7.72916C21.5734 7.2889 21.9357 6.73934 22.1575 6.12651C22.3794 5.51369 22.4544 4.85543 22.3762 4.20688C22.2981 3.55834 22.069 2.93838 21.7083 2.39893C21.3476 1.85948 20.8657 1.41624 20.303 1.10635C19.7402 0.796454 19.113 0.628921 18.4739 0.617782C17.8349 0.606642 17.2025 0.75222 16.6297 1.04232C16.057 1.33242 15.5606 1.75861 15.1821 2.28517C14.8036 2.81174 14.554 3.42335 14.4543 4.0688C14.4414 4.1556 14.4566 4.24432 14.4976 4.32147C14.5385 4.39862 14.6031 4.45997 14.6813 4.49618C15.791 5.02068 16.7309 5.85874 17.3899 6.91149C18.049 7.96423 18.3997 9.18773 18.4007 10.4376C18.4007 10.5685 18.4007 10.6973 18.3887 10.8261C18.386 10.8816 18.3944 10.9369 18.4133 10.9889C18.4321 11.0409 18.4612 11.0885 18.4986 11.1287C18.536 11.1688 18.581 11.2008 18.6309 11.2226C18.6808 11.2444 18.7345 11.2556 18.7888 11.2556H23.2013C23.3819 11.2559 23.5573 11.1937 23.6989 11.0791C23.8406 10.9646 23.9401 10.8044 23.9814 10.6247C24.0073 10.5015 24.0061 10.3739 23.9779 10.2512C23.9497 10.1285 23.8953 10.0137 23.8184 9.91515H23.8134ZM14.9123 14.3301C15.709 13.7063 16.2944 12.8431 16.5864 11.8616C16.8783 10.8802 16.8621 9.82988 16.54 8.85834C16.2179 7.88679 15.6061 7.04286 14.7906 6.44514C13.9751 5.84742 12.9969 5.52597 11.9934 5.52597C10.99 5.52597 10.0118 5.84742 9.19629 6.44514C8.38079 7.04286 7.76899 7.88679 7.44689 8.85834C7.12479 9.82988 7.10858 10.8802 7.40053 11.8616C7.69249 12.8431 8.27793 13.7063 9.07458 14.3301C7.66094 14.9562 6.48052 16.0286 5.70616 17.3903C5.63593 17.5146 5.59896 17.6557 5.59897 17.7993C5.59898 17.9429 5.63596 18.0839 5.70621 18.2083C5.77645 18.3326 5.87748 18.4359 5.99913 18.5077C6.12079 18.5794 6.25878 18.6172 6.39925 18.6172H17.6006C17.7411 18.6172 17.8791 18.5794 18.0008 18.5077C18.1224 18.4359 18.2234 18.3326 18.2937 18.2083C18.3639 18.0839 18.4009 17.9429 18.4009 17.7993C18.4009 17.6557 18.364 17.5146 18.2937 17.3903C17.5177 16.0278 16.3351 14.9553 14.9193 14.3301H14.9123Z" fill="#1863D3"/>
</svg>
