<svg width="24" height="25" viewBox="0 0 24 25" fill="none" xmlns="http://www.w3.org/2000/svg">
<g clip-path="url(#clip0_3228_28934)">
<path d="M14.2498 8.11684C14.2498 7.91793 14.3289 7.72716 14.4695 7.58651C14.6102 7.44586 14.8009 7.36684 14.9998 7.36684H23.2498C23.4488 7.36684 23.6395 7.44586 23.7802 7.58651C23.9208 7.72716 23.9998 7.91793 23.9998 8.11684C23.9998 8.31575 23.9208 8.50652 23.7802 8.64717C23.6395 8.78782 23.4488 8.86684 23.2498 8.86684H14.9998C14.8009 8.86684 14.6102 8.78782 14.4695 8.64717C14.3289 8.50652 14.2498 8.31575 14.2498 8.11684ZM23.2498 11.8668H14.9998C14.8009 11.8668 14.6102 11.9459 14.4695 12.0865C14.3289 12.2272 14.2498 12.4179 14.2498 12.6168C14.2498 12.8158 14.3289 13.0065 14.4695 13.1472C14.6102 13.2878 14.8009 13.3668 14.9998 13.3668H23.2498C23.4488 13.3668 23.6395 13.2878 23.7802 13.1472C23.9208 13.0065 23.9998 12.8158 23.9998 12.6168C23.9998 12.4179 23.9208 12.2272 23.7802 12.0865C23.6395 11.9459 23.4488 11.8668 23.2498 11.8668ZM23.2498 16.3668H17.2498C17.0509 16.3668 16.8602 16.4459 16.7195 16.5865C16.5789 16.7272 16.4998 16.9179 16.4998 17.1168C16.4998 17.3158 16.5789 17.5065 16.7195 17.6472C16.8602 17.7878 17.0509 17.8668 17.2498 17.8668H23.2498C23.4488 17.8668 23.6395 17.7878 23.7802 17.6472C23.9208 17.5065 23.9998 17.3158 23.9998 17.1168C23.9998 16.9179 23.9208 16.7272 23.7802 16.5865C23.6395 16.4459 23.4488 16.3668 23.2498 16.3668ZM14.2264 18.4293C14.2509 18.5248 14.2564 18.6241 14.2425 18.7216C14.2287 18.8191 14.1957 18.913 14.1456 18.9978C14.0954 19.0826 14.0291 19.1567 13.9503 19.2158C13.8715 19.2749 13.7818 19.318 13.6864 19.3425C13.6253 19.3589 13.5622 19.3671 13.4989 19.3668C13.3326 19.3669 13.1709 19.3117 13.0394 19.2099C12.9079 19.1081 12.8139 18.9654 12.7723 18.8043C12.1948 16.56 9.92797 14.8668 7.4989 14.8668C5.06984 14.8668 2.80297 16.559 2.22547 18.8043C2.17574 18.997 2.0515 19.1621 1.88008 19.2632C1.70866 19.3643 1.5041 19.3931 1.3114 19.3434C1.11871 19.2937 0.953657 19.1694 0.852564 18.998C0.75147 18.8266 0.722613 18.622 0.772341 18.4293C1.2964 16.394 2.81984 14.7459 4.75297 13.9293C4.00862 13.356 3.46239 12.5641 3.19089 11.6646C2.91938 10.7652 2.93622 9.8033 3.23904 8.91389C3.54186 8.02449 4.11547 7.25217 4.87942 6.70525C5.64338 6.15834 6.55936 5.86426 7.4989 5.86426C8.43845 5.86426 9.35443 6.15834 10.1184 6.70525C10.8823 7.25217 11.4559 8.02449 11.7588 8.91389C12.0616 9.8033 12.0784 10.7652 11.8069 11.6646C11.5354 12.5641 10.9892 13.356 10.2448 13.9293C12.1789 14.7459 13.7023 16.394 14.2264 18.4293ZM7.49984 13.3668C8.09318 13.3668 8.6732 13.1909 9.16655 12.8613C9.6599 12.5316 10.0444 12.0631 10.2715 11.5149C10.4985 10.9667 10.558 10.3635 10.4422 9.78157C10.3264 9.19963 10.0407 8.66508 9.62116 8.24552C9.2016 7.82596 8.66706 7.54024 8.08511 7.42449C7.50317 7.30873 6.89997 7.36814 6.35179 7.5952C5.80361 7.82227 5.33508 8.20678 5.00543 8.70013C4.67579 9.19348 4.49984 9.7735 4.49984 10.3668C4.49984 11.1625 4.81591 11.9256 5.37852 12.4882C5.94113 13.0508 6.70419 13.3668 7.49984 13.3668Z" fill="#9299A2"/>
</g>
<defs>
<clipPath id="clip0_3228_28934">
<rect width="24" height="24" fill="white" transform="translate(0 0.617188)"/>
</clipPath>
</defs>
</svg>
