<svg width="24" height="25" viewBox="0 0 24 25" fill="none" xmlns="http://www.w3.org/2000/svg">
<path d="M14.2499 8.11684C14.2499 7.91793 14.3289 7.72716 14.4696 7.58651C14.6102 7.44586 14.801 7.36684 14.9999 7.36684H23.2499C23.4488 7.36684 23.6396 7.44586 23.7802 7.58651C23.9209 7.72716 23.9999 7.91793 23.9999 8.11684C23.9999 8.31575 23.9209 8.50652 23.7802 8.64717C23.6396 8.78782 23.4488 8.86684 23.2499 8.86684H14.9999C14.801 8.86684 14.6102 8.78782 14.4696 8.64717C14.3289 8.50652 14.2499 8.31575 14.2499 8.11684ZM23.2499 11.8668H14.9999C14.801 11.8668 14.6102 11.9459 14.4696 12.0865C14.3289 12.2272 14.2499 12.4179 14.2499 12.6168C14.2499 12.8158 14.3289 13.0065 14.4696 13.1472C14.6102 13.2878 14.801 13.3668 14.9999 13.3668H23.2499C23.4488 13.3668 23.6396 13.2878 23.7802 13.1472C23.9209 13.0065 23.9999 12.8158 23.9999 12.6168C23.9999 12.4179 23.9209 12.2272 23.7802 12.0865C23.6396 11.9459 23.4488 11.8668 23.2499 11.8668ZM23.2499 16.3668H17.2499C17.051 16.3668 16.8602 16.4459 16.7196 16.5865C16.5789 16.7272 16.4999 16.9179 16.4999 17.1168C16.4999 17.3158 16.5789 17.5065 16.7196 17.6472C16.8602 17.7878 17.051 17.8668 17.2499 17.8668H23.2499C23.4488 17.8668 23.6396 17.7878 23.7802 17.6472C23.9209 17.5065 23.9999 17.3158 23.9999 17.1168C23.9999 16.9179 23.9209 16.7272 23.7802 16.5865C23.6396 16.4459 23.4488 16.3668 23.2499 16.3668ZM10.2458 13.9293C10.9902 13.356 11.5364 12.5641 11.8079 11.6646C12.0794 10.7652 12.0626 9.8033 11.7598 8.91389C11.4569 8.02449 10.8833 7.25217 10.1194 6.70525C9.35542 6.15834 8.43943 5.86426 7.49989 5.86426C6.56035 5.86426 5.64436 6.15834 4.88041 6.70525C4.11645 7.25217 3.54284 8.02449 3.24003 8.91389C2.93721 9.8033 2.92037 10.7652 3.19187 11.6646C3.46338 12.5641 4.00961 13.356 4.75395 13.9293C2.82083 14.7478 1.29739 16.395 0.773327 18.4293C0.744704 18.5402 0.741841 18.6561 0.76496 18.7683C0.788078 18.8804 0.836564 18.9858 0.9067 19.0763C0.976837 19.1668 1.06676 19.24 1.16958 19.2904C1.27241 19.3407 1.38539 19.3669 1.49989 19.3668H13.4999C13.6144 19.3669 13.7274 19.3407 13.8302 19.2904C13.933 19.24 14.0229 19.1668 14.0931 19.0763C14.1632 18.9858 14.2117 18.8804 14.2348 18.7683C14.2579 18.6561 14.2551 18.5402 14.2265 18.4293C13.7024 16.394 12.179 14.7468 10.2458 13.9293Z" fill="#1863D3"/>
</svg>
