<svg width="16" height="16" viewBox="0 0 16 16" fill="none" xmlns="http://www.w3.org/2000/svg">
<path d="M15.8488 15.1863L11.8347 11.1722C12.9794 9.85585 13.5682 8.14646 13.4771 6.40439C13.3861 4.66232 12.6221 3.02367 11.3464 1.83386C10.0707 0.64405 8.38284 -0.00396524 6.63866 0.0264124C4.89447 0.05679 3.23021 0.763188 1.9967 1.9967C0.763188 3.23021 0.05679 4.89447 0.0264124 6.63866C-0.00396524 8.38284 0.64405 10.0707 1.83386 11.3464C3.02367 12.6221 4.66232 13.3861 6.40439 13.4771C8.14646 13.5682 9.85585 12.9794 11.1722 11.8347L15.1863 15.8488C15.2752 15.9316 15.3927 15.9767 15.5141 15.9745C15.6356 15.9724 15.7514 15.9232 15.8373 15.8373C15.9232 15.7514 15.9724 15.6356 15.9745 15.5141C15.9767 15.3927 15.9316 15.2752 15.8488 15.1863ZM0.986291 6.76754C0.986291 5.62412 1.32536 4.50637 1.96061 3.55565C2.59586 2.60493 3.49877 1.86393 4.55515 1.42636C5.61154 0.988794 6.77395 0.874306 7.89541 1.09738C9.01686 1.32045 10.047 1.87106 10.8555 2.67958C11.664 3.4881 12.2146 4.51822 12.4377 5.63968C12.6608 6.76113 12.5463 7.92354 12.1087 8.97993C11.6712 10.0363 10.9302 10.9392 9.97943 11.5745C9.02871 12.2097 7.91096 12.5488 6.76754 12.5488C5.23483 12.5469 3.76543 11.9372 2.68164 10.8534C1.59784 9.76966 0.988152 8.30025 0.986291 6.76754Z" fill="#7E8BA2"/>
</svg>
