<svg width="20" height="21" viewBox="0 0 20 21" fill="none" xmlns="http://www.w3.org/2000/svg">
<path d="M18.7453 13.9519L14.1863 11.9089L14.1737 11.9031C13.937 11.8019 13.6788 11.7613 13.4225 11.7849C13.1661 11.8086 12.9198 11.8958 12.7056 12.0386C12.6804 12.0553 12.6561 12.0734 12.633 12.0928L10.2775 14.1009C8.78524 13.376 7.24459 11.847 6.51974 10.3741L8.53073 7.98278C8.55008 7.95859 8.56847 7.9344 8.58589 7.90827C8.72566 7.69469 8.81046 7.44986 8.83275 7.19559C8.85503 6.94131 8.81411 6.68547 8.71363 6.45083V6.43922L6.66491 1.87241C6.53207 1.56589 6.30367 1.31055 6.01379 1.14451C5.72391 0.978465 5.38811 0.910625 5.0565 0.951114C3.74518 1.12367 2.5415 1.76767 1.67028 2.76283C0.799072 3.758 0.319903 5.03627 0.322274 6.3589C0.322274 14.0428 6.57394 20.2945 14.2579 20.2945C15.5805 20.2969 16.8588 19.8177 17.8539 18.9465C18.8491 18.0753 19.4931 16.8716 19.6657 15.5603C19.7062 15.2288 19.6385 14.8931 19.4727 14.6032C19.3068 14.3133 19.0517 14.0849 18.7453 13.9519ZM14.2579 18.7461C10.9737 18.7425 7.82503 17.4363 5.50276 15.114C3.18049 12.7917 1.87426 9.64309 1.87067 6.3589C1.86703 5.41388 2.2075 4.49985 2.82849 3.7875C3.44948 3.07515 4.30853 2.61319 5.24522 2.4879C5.24483 2.49176 5.24483 2.49565 5.24522 2.49951L7.27749 7.04794L5.27715 9.44215C5.25685 9.46551 5.23841 9.49043 5.22199 9.51667C5.07636 9.74014 4.99093 9.99744 4.97397 10.2636C4.95702 10.5298 5.00911 10.7959 5.12522 11.036C6.002 12.8293 7.80878 14.6225 9.62138 15.4983C9.86328 15.6133 10.1309 15.6636 10.398 15.6443C10.6652 15.625 10.9228 15.5367 11.1456 15.388C11.1704 15.3713 11.1943 15.3532 11.2172 15.3338L13.5698 13.3267L18.1182 15.3638C18.1182 15.3638 18.126 15.3638 18.1289 15.3638C18.0051 16.3018 17.5438 17.1626 16.8314 17.7851C16.1189 18.4077 15.204 18.7493 14.2579 18.7461Z" fill="#9299A2"/>
</svg>
