<svg width="12" height="10" viewBox="0 0 12 10" fill="none" xmlns="http://www.w3.org/2000/svg">
<path d="M8.95078 6.40528C8.80558 6.33269 8.71387 6.18429 8.71387 6.02196V3.98027C8.71387 3.81794 8.80558 3.66954 8.95078 3.59695L10.6651 2.7398C10.95 2.59733 11.2853 2.80454 11.2853 3.12313V6.8791C11.2853 7.19769 10.95 7.40491 10.6651 7.26243L8.95078 6.40528Z" stroke="#9299A2" stroke-width="0.685714" stroke-miterlimit="10"/>
<path d="M7.85672 1H1.57101C1.09762 1 0.713867 1.38376 0.713867 1.85714V8.14286C0.713867 8.61624 1.09762 9 1.57101 9H7.85672C8.33011 9 8.71387 8.61624 8.71387 8.14286V1.85714C8.71387 1.38376 8.33011 1 7.85672 1Z" stroke="#9299A2" stroke-width="0.685714" stroke-miterlimit="10"/>
<path d="M5.43252 3.47638C5.49699 3.54093 5.5332 3.62843 5.5332 3.71966C5.5332 3.8109 5.49699 3.8984 5.43252 3.96295L3.2659 6.12957H4.7302C4.82151 6.12957 4.90908 6.16584 4.97364 6.23041C5.0382 6.29497 5.07448 6.38254 5.07448 6.47384C5.07448 6.56515 5.0382 6.65272 4.97364 6.71728C4.90908 6.78184 4.82151 6.81812 4.7302 6.81812H2.43505C2.34375 6.81812 2.25618 6.78184 2.19162 6.71728C2.12705 6.65272 2.09078 6.56515 2.09078 6.47384V4.17869C2.09078 4.08739 2.12705 3.99982 2.19162 3.93526C2.25618 3.87069 2.34375 3.83442 2.43505 3.83442C2.52636 3.83442 2.61393 3.87069 2.67849 3.93526C2.74306 3.99982 2.77933 4.08739 2.77933 4.17869V5.643L4.94595 3.47638C5.0105 3.41191 5.098 3.37569 5.18923 3.37569C5.28047 3.37569 5.36797 3.41191 5.43252 3.47638Z" fill="#9299A2"/>
</svg>
