<svg width="17" height="18" viewBox="0 0 17 18" fill="none" xmlns="http://www.w3.org/2000/svg">
<path d="M8.74958 0.963867C6.6191 0.966207 4.57654 1.81358 3.07006 3.32006C1.56358 4.82654 0.716207 6.8691 0.713867 8.99958V15.7496C0.713867 16.0906 0.849326 16.4176 1.09044 16.6587C1.33156 16.8998 1.65859 17.0353 1.99958 17.0353H8.74958C10.8808 17.0353 12.9247 16.1887 14.4317 14.6817C15.9387 13.1747 16.7853 11.1308 16.7853 8.99958C16.7853 6.86838 15.9387 4.82446 14.4317 3.31747C12.9247 1.81048 10.8808 0.963867 8.74958 0.963867ZM8.74958 15.7496H1.99958V8.99958C1.99958 7.66456 2.39546 6.35951 3.13716 5.24948C3.87886 4.13945 4.93307 3.27429 6.16647 2.76339C7.39987 2.2525 8.75707 2.11883 10.0664 2.37928C11.3758 2.63973 12.5785 3.28261 13.5226 4.22661C14.4666 5.17061 15.1094 6.37335 15.3699 7.68272C15.6303 8.99209 15.4967 10.3493 14.9858 11.5827C14.4749 12.8161 13.6097 13.8703 12.4997 14.612C11.3896 15.3537 10.0846 15.7496 8.74958 15.7496ZM9.71387 9.32101C9.71387 9.51173 9.65731 9.69816 9.55136 9.85674C9.4454 10.0153 9.2948 10.1389 9.1186 10.2119C8.9424 10.2849 8.74851 10.304 8.56146 10.2668C8.37441 10.2296 8.20259 10.1377 8.06773 10.0029C7.93287 9.868 7.84103 9.69619 7.80382 9.50913C7.76662 9.32208 7.78571 9.12819 7.8587 8.95199C7.93168 8.77579 8.05528 8.62519 8.21385 8.51924C8.37243 8.41328 8.55886 8.35672 8.74958 8.35672C9.00533 8.35672 9.2506 8.45832 9.43143 8.63916C9.61227 8.82 9.71387 9.06527 9.71387 9.32101ZM6.17815 9.32101C6.17815 9.51173 6.1216 9.69816 6.01564 9.85674C5.90968 10.0153 5.75908 10.1389 5.58288 10.2119C5.40668 10.2849 5.2128 10.304 5.02574 10.2668C4.83869 10.2296 4.66687 10.1377 4.53201 10.0029C4.39716 9.868 4.30532 9.69619 4.26811 9.50913C4.2309 9.32208 4.25 9.12819 4.32298 8.95199C4.39597 8.77579 4.51956 8.62519 4.67814 8.51924C4.83671 8.41328 5.02315 8.35672 5.21387 8.35672C5.46961 8.35672 5.71488 8.45832 5.89572 8.63916C6.07656 8.82 6.17815 9.06527 6.17815 9.32101ZM13.2496 9.32101C13.2496 9.51173 13.193 9.69816 13.0871 9.85674C12.9811 10.0153 12.8305 10.1389 12.6543 10.2119C12.4781 10.2849 12.2842 10.304 12.0972 10.2668C11.9101 10.2296 11.7383 10.1377 11.6034 10.0029C11.4686 9.868 11.3767 9.69619 11.3395 9.50913C11.3023 9.32208 11.3214 9.12819 11.3944 8.95199C11.4674 8.77579 11.591 8.62519 11.7496 8.51924C11.9081 8.41328 12.0946 8.35672 12.2853 8.35672C12.541 8.35672 12.7863 8.45832 12.9671 8.63916C13.148 8.82 13.2496 9.06527 13.2496 9.32101Z" fill="#283B52"/>
</svg>
