<svg width="20" height="12" viewBox="0 0 20 12" fill="none" xmlns="http://www.w3.org/2000/svg">
<path d="M19.3022 1.57994C19.1997 1.52499 19.0842 1.49889 18.9681 1.5044C18.8519 1.50992 18.7394 1.54686 18.6425 1.61128L15.785 3.51253V1.49958C15.785 1.15859 15.6496 0.831562 15.4084 0.590444C15.1673 0.349326 14.8403 0.213867 14.4993 0.213867H1.64216C1.30117 0.213867 0.97414 0.349326 0.733022 0.590444C0.491904 0.831562 0.356445 1.15859 0.356445 1.49958V10.4996C0.356445 10.8406 0.491904 11.1676 0.733022 11.4087C0.97414 11.6498 1.30117 11.7853 1.64216 11.7853H14.4993C14.8403 11.7853 15.1673 11.6498 15.4084 11.4087C15.6496 11.1676 15.785 10.8406 15.785 10.4996V8.49065L18.6425 10.3959C18.7487 10.4648 18.8728 10.5009 18.9993 10.4996C19.1698 10.4996 19.3333 10.4319 19.4539 10.3113C19.5744 10.1907 19.6422 10.0272 19.6422 9.85672V2.14244C19.6413 2.02677 19.6093 1.91347 19.5495 1.81447C19.4897 1.71547 19.4043 1.63445 19.3022 1.57994ZM14.4993 10.4996H1.64216V1.49958H14.4993V10.4996ZM18.3564 8.65539L15.785 6.94137V5.0578L18.3564 3.3478V8.65539Z" fill="#283B52"/>
</svg>
