<svg width="20" height="20" viewBox="0 0 20 20" fill="none" xmlns="http://www.w3.org/2000/svg">
<path d="M10.0014 6.2499C9.25969 6.2499 8.53467 6.46984 7.91798 6.88189C7.3013 7.29395 6.82065 7.87962 6.53682 8.56484C6.25299 9.25006 6.17873 10.0041 6.32342 10.7315C6.46812 11.4589 6.82527 12.1271 7.34972 12.6516C7.87417 13.176 8.54235 13.5332 9.26978 13.6778C9.99721 13.8225 10.7512 13.7483 11.4364 13.4645C12.1217 13.1806 12.7073 12.7 13.1194 12.0833C13.5314 11.4666 13.7514 10.7416 13.7514 9.9999C13.7503 9.00566 13.3549 8.05243 12.6519 7.3494C11.9488 6.64636 10.9956 6.25094 10.0014 6.2499ZM10.0014 12.4999C9.50692 12.4999 9.02357 12.3533 8.61244 12.0786C8.20132 11.8039 7.88089 11.4134 7.69167 10.9566C7.50245 10.4998 7.45294 9.99713 7.54941 9.51218C7.64587 9.02723 7.88397 8.58177 8.2336 8.23214C8.58323 7.88251 9.02869 7.6444 9.51364 7.54794C9.9986 7.45148 10.5013 7.50099 10.9581 7.6902C11.4149 7.87942 11.8053 8.19986 12.08 8.61098C12.3547 9.0221 12.5014 9.50545 12.5014 9.9999C12.5014 10.6629 12.238 11.2988 11.7691 11.7677C11.3003 12.2365 10.6644 12.4999 10.0014 12.4999ZM18.5904 8.37569C18.573 8.28767 18.5369 8.20444 18.4844 8.13165C18.432 8.05885 18.3645 7.9982 18.2865 7.95381L15.9561 6.62568L15.9467 3.99912C15.9464 3.90866 15.9265 3.81935 15.8883 3.73734C15.8501 3.65533 15.7946 3.58258 15.7256 3.52412C14.8802 2.80904 13.9067 2.26105 12.8568 1.90928C12.7742 1.88129 12.6865 1.87094 12.5996 1.87888C12.5127 1.88682 12.4284 1.91287 12.3522 1.95537L10.0014 3.26943L7.64824 1.95303C7.57196 1.91029 7.48755 1.88404 7.40048 1.87596C7.31341 1.86789 7.22562 1.87817 7.14278 1.90615C6.09367 2.2605 5.12128 2.81058 4.27715 3.52725C4.20822 3.58562 4.15276 3.65824 4.11459 3.74011C4.07642 3.82197 4.05645 3.91114 4.05606 4.00147L4.04434 6.63037L1.71387 7.9585C1.6359 8.00288 1.5684 8.06354 1.51596 8.13633C1.46352 8.20913 1.42737 8.29236 1.40996 8.38037C1.19668 9.45216 1.19668 10.5555 1.40996 11.6272C1.42737 11.7153 1.46352 11.7985 1.51596 11.8713C1.5684 11.9441 1.6359 12.0047 1.71387 12.0491L4.04434 13.3772L4.05371 16.0038C4.054 16.0943 4.07391 16.1836 4.11208 16.2656C4.15026 16.3476 4.20578 16.4204 4.27481 16.4788C5.12017 17.1939 6.09368 17.7419 7.14356 18.0937C7.22623 18.1216 7.31386 18.132 7.40078 18.1241C7.48771 18.1161 7.572 18.0901 7.64824 18.0476L10.0014 16.7304L12.3545 18.0468C12.4476 18.0987 12.5526 18.1256 12.6592 18.1249C12.7274 18.1249 12.7952 18.1138 12.86 18.0921C13.9089 17.7382 14.8813 17.1887 15.7256 16.4726C15.7945 16.4142 15.85 16.3416 15.8881 16.2597C15.9263 16.1778 15.9463 16.0887 15.9467 15.9983L15.9584 13.3694L18.2889 12.0413C18.3668 11.9969 18.4343 11.9363 18.4868 11.8635C18.5392 11.7907 18.5754 11.7074 18.5928 11.6194C18.8049 10.5485 18.8041 9.4463 18.5904 8.37569ZM17.4186 11.103L15.1865 12.3726C15.0887 12.4282 15.0078 12.5091 14.9522 12.6069C14.9068 12.6851 14.8592 12.7679 14.8107 12.846C14.7487 12.9445 14.7157 13.0585 14.7154 13.1749L14.7037 15.6944C14.1038 16.1656 13.4354 16.5423 12.7217 16.8116L10.4701 15.5569C10.3766 15.5052 10.2715 15.4783 10.1646 15.4788H10.1498C10.0553 15.4788 9.95996 15.4788 9.86543 15.4788C9.75362 15.476 9.64308 15.503 9.54512 15.5569L7.29199 16.8147C6.57677 16.5475 5.90654 16.1726 5.30449 15.703L5.2959 13.1874C5.29552 13.0708 5.2625 12.9566 5.20059 12.8577C5.15215 12.7796 5.10449 12.7015 5.05996 12.6187C5.00475 12.5193 4.92378 12.4368 4.82559 12.3796L2.59121 11.1069C2.47559 10.3755 2.47559 9.63052 2.59121 8.89912L4.81934 7.62725C4.91713 7.57164 4.99811 7.49067 5.05371 7.39287C5.09903 7.31475 5.14668 7.23194 5.19512 7.15381C5.25712 7.05529 5.29015 6.94131 5.29043 6.8249L5.30215 4.30537C5.90209 3.83424 6.57048 3.4575 7.28418 3.18818L9.53262 4.44287C9.63047 4.49711 9.74109 4.52409 9.85293 4.521C9.94746 4.521 10.0428 4.521 10.1373 4.521C10.2491 4.52379 10.3597 4.49683 10.4576 4.44287L12.7107 3.18506C13.426 3.45231 14.0962 3.8272 14.6982 4.29678L14.7068 6.8124C14.7072 6.92904 14.7402 7.04324 14.8022 7.14209C14.8506 7.22022 14.8982 7.29834 14.9428 7.38115C14.998 7.48046 15.079 7.56305 15.1772 7.62022L17.4115 8.89287C17.5287 9.62483 17.53 10.3707 17.4154 11.103H17.4186Z" fill="#283B52"/>
</svg>
