<svg width="24" height="25" viewBox="0 0 24 25" fill="none" xmlns="http://www.w3.org/2000/svg">
<path d="M15.897 7.42146C15.2182 5.83227 14.0115 4.52622 12.4808 3.72411C10.9502 2.92201 9.1895 2.67305 7.49647 3.01933C5.80343 3.36561 4.28191 4.28588 3.18912 5.62457C2.09633 6.96325 1.49932 8.63822 1.49902 10.3663V16.3666C1.49902 16.7645 1.65707 17.146 1.93839 17.4273C2.21971 17.7087 2.60126 17.8667 2.9991 17.8667H8.12469C8.70999 19.2033 9.67177 20.3406 10.8926 21.1398C12.1135 21.9389 13.5406 22.3653 14.9997 22.3669H21.0001C21.3979 22.3669 21.7795 22.2089 22.0608 21.9276C22.3421 21.6463 22.5001 21.2647 22.5001 20.8669V14.8665C22.4998 13.0329 21.8278 11.263 20.6111 9.89119C19.3944 8.5194 17.7174 7.6408 15.897 7.42146ZM2.9991 10.3663C2.9991 9.17955 3.35102 8.01945 4.01034 7.03271C4.66966 6.04596 5.60679 5.27688 6.7032 4.82273C7.79962 4.36858 9.00608 4.24976 10.17 4.48128C11.334 4.7128 12.4031 5.28428 13.2423 6.12344C14.0815 6.9626 14.6529 8.03175 14.8845 9.1957C15.116 10.3596 14.9971 11.5661 14.543 12.6625C14.0888 13.7589 13.3198 14.6961 12.333 15.3554C11.3463 16.0147 10.1862 16.3666 8.99942 16.3666H2.9991V10.3663ZM21.0001 20.8669H14.9997C13.9387 20.8657 12.8969 20.5837 11.9801 20.0497C11.0632 19.5157 10.304 18.7487 9.77947 17.8264C10.8068 17.7198 11.8009 17.402 12.6996 16.8929C13.5982 16.3839 14.3819 15.6946 15.0015 14.8683C15.6211 14.042 16.0632 13.0965 16.3001 12.0912C16.5369 11.0859 16.5635 10.0426 16.3779 9.02655C17.6936 9.33703 18.8658 10.0827 19.7047 11.1426C20.5437 12.2026 21.0001 13.5148 21.0001 14.8665V20.8669Z" fill="#9299A2"/>
</svg>
