<svg width="24" height="25" viewBox="0 0 24 25" fill="none" xmlns="http://www.w3.org/2000/svg">
<path d="M20.7453 15.9519L16.1863 13.9089L16.1737 13.9031C15.937 13.8019 15.6788 13.7613 15.4225 13.7849C15.1661 13.8086 14.9198 13.8958 14.7056 14.0386C14.6804 14.0553 14.6561 14.0734 14.633 14.0928L12.2775 16.1009C10.7852 15.376 9.24459 13.847 8.51974 12.3741L10.5307 9.98278C10.5501 9.95859 10.5685 9.9344 10.5859 9.90827C10.7257 9.69469 10.8105 9.44986 10.8327 9.19559C10.855 8.94131 10.8141 8.68547 10.7136 8.45083V8.43922L8.66491 3.87241C8.53207 3.56589 8.30367 3.31055 8.01379 3.14451C7.72391 2.97846 7.38811 2.91062 7.0565 2.95111C5.74518 3.12367 4.5415 3.76767 3.67028 4.76283C2.79907 5.758 2.3199 7.03627 2.32227 8.3589C2.32227 16.0428 8.57394 22.2945 16.2579 22.2945C17.5805 22.2969 18.8588 21.8177 19.8539 20.9465C20.8491 20.0753 21.4931 18.8716 21.6657 17.5603C21.7062 17.2288 21.6385 16.8931 21.4727 16.6032C21.3068 16.3133 21.0517 16.0849 20.7453 15.9519ZM16.2579 20.7461C12.9737 20.7425 9.82503 19.4363 7.50276 17.114C5.18049 14.7917 3.87426 11.6431 3.87067 8.3589C3.86703 7.41388 4.2075 6.49985 4.82849 5.7875C5.44948 5.07515 6.30853 4.61319 7.24522 4.4879C7.24483 4.49176 7.24483 4.49565 7.24522 4.49951L9.27749 9.04794L7.27715 11.4421C7.25685 11.4655 7.23841 11.4904 7.22199 11.5167C7.07636 11.7401 6.99093 11.9974 6.97397 12.2636C6.95702 12.5298 7.00911 12.7959 7.12522 13.036C8.002 14.8293 9.80878 16.6225 11.6214 17.4983C11.8633 17.6133 12.1309 17.6636 12.398 17.6443C12.6652 17.625 12.9228 17.5367 13.1456 17.388C13.1704 17.3713 13.1943 17.3532 13.2172 17.3338L15.5698 15.3267L20.1182 17.3638C20.1182 17.3638 20.126 17.3638 20.1289 17.3638C20.0051 18.3018 19.5438 19.1626 18.8314 19.7851C18.1189 20.4077 17.204 20.7493 16.2579 20.7461Z" fill="#1863D3"/>
<path d="M20.9944 16.9368C20.8488 18.0253 20.3127 19.0238 19.486 19.7467C18.6593 20.4696 17.5982 20.8676 16.5 20.8668C13.1185 20.8668 9.87549 19.5235 7.4844 17.1324C5.0933 14.7413 3.75 11.4983 3.75 8.1168C3.74916 7.01862 4.1472 5.9575 4.87009 5.1308C5.59298 4.3041 6.59152 3.76808 7.68001 3.62243C7.84092 3.60331 8.00369 3.63682 8.14396 3.71794C8.28423 3.79906 8.39445 3.92343 8.45814 4.07243L10.4391 8.49742C10.4877 8.61108 10.5076 8.735 10.4968 8.85816C10.486 8.98133 10.4449 9.09991 10.3772 9.20336L8.37376 11.5855C8.30269 11.6928 8.26067 11.8166 8.2518 11.945C8.24292 12.0733 8.2675 12.2017 8.32314 12.3177C9.09845 13.9049 10.7391 15.5259 12.331 16.2937C12.4476 16.3491 12.5766 16.3731 12.7053 16.3634C12.8341 16.3537 12.958 16.3106 13.065 16.2384L15.4088 14.2415C15.5126 14.1724 15.6321 14.1303 15.7564 14.119C15.8806 14.1077 16.0057 14.1275 16.1203 14.1768L20.5416 16.1577C20.6913 16.221 20.8164 16.3312 20.898 16.4717C20.9797 16.6122 21.0135 16.7754 20.9944 16.9368Z" fill="#1863D3"/>
</svg>
