<svg width="12" height="10" viewBox="0 0 12 10" fill="none" xmlns="http://www.w3.org/2000/svg">
<path d="M0.84375 2.53912H2.87109C2.95178 2.93648 3.16737 3.29374 3.48132 3.55034C3.79526 3.80695 4.18827 3.94713 4.59375 3.94713C4.99923 3.94713 5.39223 3.80695 5.70618 3.55034C6.02013 3.29374 6.23572 2.93648 6.31641 2.53912H11.1562C11.2495 2.53912 11.3389 2.50208 11.4048 2.43615C11.4708 2.37021 11.5078 2.28079 11.5078 2.18755C11.5078 2.09431 11.4708 2.00489 11.4048 1.93896C11.3389 1.87303 11.2495 1.83599 11.1562 1.83599H6.31641C6.23572 1.43862 6.02013 1.08137 5.70618 0.824764C5.39223 0.568158 4.99923 0.427979 4.59375 0.427979C4.18827 0.427979 3.79526 0.568158 3.48132 0.824764C3.16737 1.08137 2.95178 1.43862 2.87109 1.83599H0.84375C0.75051 1.83599 0.661088 1.87303 0.595158 1.93896C0.529227 2.00489 0.492188 2.09431 0.492188 2.18755C0.492188 2.28079 0.529227 2.37021 0.595158 2.43615C0.661088 2.50208 0.75051 2.53912 0.84375 2.53912ZM4.59375 1.13287C4.80235 1.13287 5.00626 1.19472 5.1797 1.31061C5.35315 1.4265 5.48833 1.59122 5.56815 1.78394C5.64798 1.97666 5.66887 2.18872 5.62817 2.39331C5.58748 2.5979 5.48703 2.78583 5.33953 2.93333C5.19203 3.08083 5.0041 3.18128 4.79951 3.22198C4.59492 3.26267 4.38286 3.24178 4.19014 3.16196C3.99742 3.08213 3.8327 2.94695 3.71681 2.77351C3.60092 2.60006 3.53906 2.39615 3.53906 2.18755C3.53906 1.90783 3.65018 1.63957 3.84797 1.44178C4.04577 1.24398 4.31403 1.13287 4.59375 1.13287ZM11.1562 7.46099H10.0664C9.98572 7.06362 9.77013 6.70637 9.45618 6.44976C9.14223 6.19316 8.74923 6.05298 8.34375 6.05298C7.93827 6.05298 7.54527 6.19316 7.23132 6.44976C6.91737 6.70637 6.70178 7.06362 6.62109 7.46099H0.84375C0.75051 7.46099 0.661088 7.49803 0.595158 7.56396C0.529227 7.62989 0.492188 7.71931 0.492188 7.81255C0.492188 7.90579 0.529227 7.99522 0.595158 8.06115C0.661088 8.12708 0.75051 8.16412 0.84375 8.16412H6.62109C6.70178 8.56148 6.91737 8.91874 7.23132 9.17534C7.54527 9.43195 7.93827 9.57213 8.34375 9.57213C8.74923 9.57213 9.14223 9.43195 9.45618 9.17534C9.77013 8.91874 9.98572 8.56148 10.0664 8.16412H11.1562C11.2495 8.16412 11.3389 8.12708 11.4048 8.06115C11.4708 7.99522 11.5078 7.90579 11.5078 7.81255C11.5078 7.71931 11.4708 7.62989 11.4048 7.56396C11.3389 7.49803 11.2495 7.46099 11.1562 7.46099ZM8.34375 8.86724C8.13515 8.86724 7.93124 8.80538 7.7578 8.68949C7.58435 8.5736 7.44917 8.40888 7.36935 8.21617C7.28952 8.02345 7.26863 7.81138 7.30933 7.60679C7.35002 7.4022 7.45047 7.21428 7.59797 7.06678C7.74547 6.91928 7.9334 6.81883 8.13799 6.77813C8.34258 6.73744 8.55464 6.75832 8.74736 6.83815C8.94008 6.91798 9.1048 7.05316 9.22069 7.2266C9.33658 7.40004 9.39844 7.60396 9.39844 7.81255C9.39844 8.09227 9.28732 8.36054 9.08953 8.55833C8.89173 8.75612 8.62347 8.86724 8.34375 8.86724Z" fill="#2D3A55"/>
</svg>
