<svg width="24" height="25" viewBox="0 0 24 25" fill="none" xmlns="http://www.w3.org/2000/svg">
<path d="M12.1596 11.4872C12.0596 11.4772 11.9396 11.4772 11.8296 11.4872C9.44957 11.4072 7.55957 9.45719 7.55957 7.05719C7.55957 4.60719 9.53957 2.61719 11.9996 2.61719C14.4496 2.61719 16.4396 4.60719 16.4396 7.05719C16.4296 9.45719 14.5396 11.4072 12.1596 11.4872Z" fill="#1863D3" stroke="#1863D3" stroke-width="1.5" stroke-linecap="round" stroke-linejoin="round"/>
<path d="M7.15973 15.1772C4.73973 16.7972 4.73973 19.4372 7.15973 21.0472C9.90973 22.8872 14.4197 22.8872 17.1697 21.0472C19.5897 19.4272 19.5897 16.7872 17.1697 15.1772C14.4297 13.3472 9.91973 13.3472 7.15973 15.1772Z" fill="#1863D3" stroke="#1863D3" stroke-width="1.5" stroke-linecap="round" stroke-linejoin="round"/>
</svg>
