<svg width="17" height="17" viewBox="0 0 17 17" fill="none" xmlns="http://www.w3.org/2000/svg">
<path d="M15.5115 11.4472L11.7258 9.7509L11.7154 9.74608C11.5189 9.66202 11.3045 9.62829 11.0916 9.64793C10.8788 9.66757 10.6742 9.73997 10.4964 9.85858C10.4754 9.87241 10.4553 9.88743 10.4361 9.90358L8.48021 11.571C7.24111 10.9691 5.96182 9.69947 5.35995 8.47643L7.02977 6.49081C7.04584 6.47072 7.06111 6.45063 7.07557 6.42893C7.19163 6.25159 7.26204 6.0483 7.28055 5.83716C7.29906 5.62603 7.26508 5.41359 7.18164 5.21875V5.20911L5.48048 1.41706C5.37018 1.16254 5.18053 0.950517 4.93983 0.812643C4.69913 0.674769 4.42029 0.618438 4.14495 0.652058C3.05608 0.795341 2.05661 1.33009 1.3332 2.15642C0.609784 2.98276 0.211906 4.04417 0.213874 5.14242C0.213874 11.5228 5.40495 16.7138 11.7853 16.7138C12.8836 16.7158 13.945 16.3179 14.7713 15.5945C15.5976 14.8711 16.1324 13.8716 16.2757 12.7828C16.3093 12.5075 16.2531 12.2288 16.1154 11.9881C15.9777 11.7474 15.7658 11.5577 15.5115 11.4472ZM11.7853 15.4281C9.05828 15.4252 6.44379 14.3405 4.51549 12.4122C2.58719 10.4839 1.50257 7.86944 1.49959 5.14242C1.49657 4.35772 1.77927 3.59875 2.29491 3.00725C2.81055 2.41575 3.52387 2.03217 4.30164 1.92813C4.30133 1.93134 4.30133 1.93457 4.30164 1.93777L5.98914 5.71456L4.32816 7.70259C4.3113 7.72199 4.29599 7.74268 4.28236 7.76447C4.16143 7.95003 4.09049 8.16368 4.07641 8.38472C4.06233 8.60575 4.10559 8.82668 4.202 9.02608C4.93004 10.5151 6.4303 12.0041 7.93539 12.7313C8.13626 12.8268 8.35846 12.8686 8.58029 12.8526C8.80213 12.8365 9.016 12.7632 9.20102 12.6397C9.22165 12.6258 9.2415 12.6108 9.26048 12.5947L11.214 10.9281L14.9908 12.6196C14.9908 12.6196 14.9972 12.6196 14.9996 12.6196C14.8968 13.3985 14.5138 14.1133 13.9222 14.6302C13.3306 15.1471 12.5709 15.4308 11.7853 15.4281Z" fill="#283B52"/>
</svg>
