<svg width="24" height="25" viewBox="0 0 24 25" fill="none" xmlns="http://www.w3.org/2000/svg">
<path d="M19.2199 5.69398C21.0757 7.53231 22.1141 10.0079 22.1107 12.5856C22.1124 13.8771 21.8523 15.1562 21.3453 16.3496C20.8383 17.543 20.0944 18.6273 19.1562 19.5402M4.92198 19.617C3.96015 18.7014 3.19626 17.6075 2.67531 16.3999C2.15437 15.1923 1.8869 13.8954 1.88868 12.5856C1.88698 11.2908 2.14841 10.0085 2.65789 8.81258C3.16738 7.61661 3.91486 6.53063 4.85727 5.61719M16.3322 8.69085C17.404 9.69014 18.0663 11.0586 18.0663 12.5679C18.0663 14.0959 17.3888 15.4791 16.2938 16.4804M7.75306 16.5237C6.63074 15.5185 5.93308 14.1175 5.93308 12.5679C5.93308 11.037 6.61355 9.64977 7.71464 8.64753" stroke="#9299A2" stroke-width="1.5" stroke-linecap="round" stroke-linejoin="round"/>
<path d="M13.3949 11.3119C14.1499 11.8671 14.5274 12.1435 14.5274 12.617C14.5274 13.0906 14.1499 13.3678 13.3949 13.9222C13.198 14.0679 12.9962 14.207 12.79 14.3393C12.6099 14.4516 12.4264 14.5584 12.2398 14.6594C11.4865 15.0723 11.1107 15.2787 10.7728 15.0504C10.4349 14.8221 10.4046 14.3443 10.3431 13.3897C10.3262 13.1192 10.3145 12.8546 10.3145 12.617C10.3145 12.3794 10.3254 12.1148 10.3431 11.8444C10.4038 10.8897 10.4349 10.412 10.7728 10.1845C11.1099 9.9553 11.4865 10.1617 12.2389 10.5738C12.4352 10.6808 12.624 10.7895 12.79 10.8948C12.9804 11.0153 13.1868 11.1594 13.3949 11.3119Z" stroke="#9299A2" stroke-width="1.5"/>
</svg>
