<svg width="19" height="19" viewBox="0 0 19 19" fill="none" xmlns="http://www.w3.org/2000/svg">
<path d="M9.5 0.5C7.11386 0.50262 4.82619 1.45167 3.13893 3.13893C1.45167 4.82619 0.50262 7.11386 0.5 9.5V17.06C0.5 17.4419 0.651714 17.8082 0.921766 18.0782C1.19182 18.3483 1.55809 18.5 1.94 18.5H9.5C11.8869 18.5 14.1761 17.5518 15.864 15.864C17.5518 14.1761 18.5 11.8869 18.5 9.5C18.5 7.11305 17.5518 4.82387 15.864 3.13604C14.1761 1.44821 11.8869 0.5 9.5 0.5ZM9.5 17.06H1.94V9.5C1.94 8.00477 2.38339 6.54312 3.21409 5.29989C4.04479 4.05665 5.2255 3.08767 6.60691 2.51547C7.98832 1.94327 9.50839 1.79356 10.9749 2.08526C12.4414 2.37697 13.7884 3.09699 14.8457 4.15427C15.903 5.21156 16.623 6.55862 16.9147 8.02512C17.2064 9.49161 17.0567 11.0117 16.4845 12.3931C15.9123 13.7745 14.9433 14.9552 13.7001 15.7859C12.4569 16.6166 10.9952 17.06 9.5 17.06ZM10.58 9.86C10.58 10.0736 10.5167 10.2824 10.398 10.46C10.2793 10.6376 10.1106 10.776 9.9133 10.8578C9.71595 10.9395 9.4988 10.9609 9.2893 10.9192C9.0798 10.8776 8.88737 10.7747 8.73633 10.6237C8.58528 10.4726 8.48242 10.2802 8.44075 10.0707C8.39908 9.8612 8.42047 9.64405 8.50221 9.4467C8.58395 9.24936 8.72238 9.08068 8.89998 8.96201C9.07759 8.84334 9.2864 8.78 9.5 8.78C9.78643 8.78 10.0611 8.89379 10.2637 9.09632C10.4662 9.29886 10.58 9.57357 10.58 9.86ZM6.62 9.86C6.62 10.0736 6.55666 10.2824 6.43799 10.46C6.31932 10.6376 6.15064 10.776 5.9533 10.8578C5.75595 10.9395 5.5388 10.9609 5.3293 10.9192C5.1198 10.8776 4.92737 10.7747 4.77632 10.6237C4.62528 10.4726 4.52242 10.2802 4.48075 10.0707C4.43908 9.8612 4.46047 9.64405 4.54221 9.4467C4.62395 9.24936 4.76238 9.08068 4.93998 8.96201C5.11759 8.84334 5.3264 8.78 5.54 8.78C5.82643 8.78 6.10114 8.89379 6.30368 9.09632C6.50622 9.29886 6.62 9.57357 6.62 9.86ZM14.54 9.86C14.54 10.0736 14.4767 10.2824 14.358 10.46C14.2393 10.6376 14.0706 10.776 13.8733 10.8578C13.676 10.9395 13.4588 10.9609 13.2493 10.9192C13.0398 10.8776 12.8474 10.7747 12.6963 10.6237C12.5453 10.4726 12.4424 10.2802 12.4008 10.0707C12.3591 9.8612 12.3805 9.64405 12.4622 9.4467C12.544 9.24936 12.6824 9.08068 12.86 8.96201C13.0376 8.84334 13.2464 8.78 13.46 8.78C13.7464 8.78 14.0211 8.89379 14.2237 9.09632C14.4262 9.29886 14.54 9.57357 14.54 9.86Z" fill="black"/>
</svg>
